<?xml version="1.0" encoding="UTF-8"?>
<svg id="Calque_2" data-name="Calque 2" xmlns="http://www.w3.org/2000/svg" viewBox="0 0 631.79 148.36">
  <defs>
    <style>
      .cls-1 {
        fill: #91651d;
      }

      .cls-2 {
        fill: #080709;
      }
    </style>
  </defs>
  <g id="Calque_1-2" data-name="Calque 1">
    <g>
      <g>
        <g>
          <path class="cls-2" d="M252.99,58.55c-2.08,3.26-4.99,5.85-8.73,7.76-3.74,1.91-8.17,2.87-13.28,2.87-5.51,0-10.37-1.19-14.59-3.59-4.22-2.39-7.49-5.75-9.83-10.08-2.33-4.33-3.5-9.31-3.5-14.93s1.17-10.7,3.5-15.06c2.33-4.36,5.61-7.73,9.83-10.12,4.22-2.39,9.08-3.59,14.59-3.59,5.17,0,9.64.93,13.41,2.78,3.77,1.86,6.68,4.37,8.73,7.55,2.05,3.18,3.19,6.71,3.42,10.59h-6.75c-.23-2.7-1.17-5.15-2.83-7.34-1.66-2.19-3.87-3.92-6.62-5.19-2.76-1.26-5.88-1.9-9.36-1.9-3.94,0-7.51.94-10.71,2.83-3.21,1.88-5.74,4.51-7.59,7.89-1.86,3.37-2.78,7.23-2.78,11.56s.93,8.1,2.78,11.47c1.86,3.37,4.39,5.99,7.59,7.84,3.21,1.86,6.78,2.78,10.71,2.78,3.6,0,6.78-.68,9.53-2.02,2.75-1.35,4.92-3.18,6.5-5.48,1.57-2.31,2.5-4.86,2.78-7.68h6.83c-.34,4.11-1.55,7.79-3.63,11.05Z"/>
          <path class="cls-2" d="M282.85,12.67h14.42l20.33,55.67h-7.59l-7-18.73h-25.98l-6.92,18.73h-7.59l20.33-55.67ZM300.98,43.12l-10.12-27.58h-1.6l-10.21,27.58h21.93Z"/>
          <path class="cls-2" d="M325.19,12.67h21.85c3.54,0,6.72.75,9.53,2.24,2.81,1.49,5.02,3.56,6.62,6.2,1.6,2.64,2.4,5.68,2.4,9.11,0,3.71-.96,6.64-2.87,8.77-1.91,2.14-4.47,3.57-7.68,4.3v.59c2.98,0,5.28.45,6.92,1.35,1.63.9,2.5,2.61,2.61,5.15l.51,17.97h-6.83l-.51-17.97c0-1.18-.28-2.02-.84-2.53-.56-.51-1.66-.76-3.29-.76h-21.51v21.26h-6.92V12.67ZM355.6,37.76c2.05-1.88,3.08-4.23,3.08-7.04,0-1.91-.48-3.75-1.43-5.52-.96-1.77-2.26-3.22-3.92-4.34-1.66-1.12-3.42-1.69-5.27-1.69h-15.94v21.42h15.94c2.98,0,5.5-.94,7.55-2.83Z"/>
          <path class="cls-2" d="M373.18,12.67h21.85c3.54,0,6.72.75,9.53,2.24,2.81,1.49,5.02,3.56,6.62,6.2,1.6,2.64,2.4,5.68,2.4,9.11,0,3.71-.96,6.64-2.87,8.77-1.91,2.14-4.47,3.57-7.68,4.3v.59c2.98,0,5.28.45,6.92,1.35,1.63.9,2.5,2.61,2.61,5.15l.51,17.97h-6.83l-.51-17.97c0-1.18-.28-2.02-.84-2.53-.56-.51-1.66-.76-3.29-.76h-21.51v21.26h-6.92V12.67ZM403.59,37.76c2.05-1.88,3.08-4.23,3.08-7.04,0-1.91-.48-3.75-1.43-5.52-.96-1.77-2.26-3.22-3.92-4.34-1.66-1.12-3.42-1.69-5.27-1.69h-15.94v21.42h15.94c2.98,0,5.5-.94,7.55-2.83Z"/>
          <path class="cls-2" d="M464.66,15.45c4.3,2.42,7.6,5.79,9.91,10.12,2.31,4.33,3.46,9.31,3.46,14.93s-1.15,10.6-3.46,14.93c-2.31,4.33-5.61,7.7-9.91,10.12-4.3,2.42-9.32,3.63-15.06,3.63s-10.75-1.21-15.06-3.63c-4.3-2.42-7.61-5.79-9.91-10.12-2.31-4.33-3.46-9.31-3.46-14.93s1.15-10.6,3.46-14.93c2.31-4.33,5.61-7.7,9.91-10.12,4.3-2.42,9.32-3.63,15.06-3.63s10.75,1.21,15.06,3.63ZM438.26,20.98c-3.23,1.77-5.74,4.32-7.51,7.63-1.77,3.32-2.66,7.28-2.66,11.89s.89,8.58,2.66,11.89c1.77,3.32,4.27,5.86,7.51,7.63,3.23,1.77,7.01,2.66,11.35,2.66,4.1,0,7.79-.89,11.05-2.66,3.26-1.77,5.82-4.33,7.68-7.68,1.86-3.35,2.78-7.3,2.78-11.85s-.93-8.51-2.78-11.85c-1.86-3.35-4.42-5.9-7.68-7.68-3.26-1.77-6.95-2.66-11.05-2.66-4.33,0-8.11.89-11.35,2.66Z"/>
          <path class="cls-2" d="M485.62,12.67h12.99l26.23,53.22h.84V12.67h6.92v55.67h-13.83l-25.3-52.38h-.93v52.38h-6.92V12.67Z"/>
          <path class="cls-2" d="M196.22,82.62h18.56c18.16,0,27.24,9.28,27.24,27.84s-9.08,27.83-27.24,27.83h-18.56v-55.67ZM230.3,126.48c3.26-3.54,4.89-8.88,4.89-16.03s-1.63-12.48-4.89-16.03c-3.26-3.54-7.73-5.31-13.41-5.31h-13.83v42.68h13.83c5.68,0,10.15-1.77,13.41-5.31Z"/>
          <path class="cls-2" d="M249.61,82.62h35.93v6.5h-29.02v17.54h27.24v6.5h-27.24v18.64h29.35v6.5h-36.27v-55.67Z"/>
          <path class="cls-2" d="M325.61,90.88c-2.59-1.74-5.9-2.61-9.95-2.61s-7.35.82-9.91,2.45c-2.56,1.63-3.84,4.02-3.84,7.17,0,2.53.9,4.47,2.7,5.82,1.8,1.35,4.95,2.42,9.45,3.21l6.58,1.18c5.17.96,9.31,2.61,12.4,4.98,3.09,2.36,4.64,5.85,4.64,10.46,0,5.17-1.94,9.07-5.82,11.68-3.88,2.61-9,3.92-15.35,3.92-4.16,0-7.94-.7-11.35-2.11-3.4-1.4-6.16-3.54-8.27-6.41-2.11-2.87-3.25-6.41-3.42-10.63h6.92c.56,8.44,5.93,12.65,16.11,12.65,4.39,0,7.86-.74,10.42-2.24,2.56-1.49,3.84-3.78,3.84-6.87,0-2.59-1.22-4.61-3.67-6.07-2.45-1.46-5.5-2.53-9.15-3.21l-6.75-1.26c-4.84-.84-8.74-2.36-11.72-4.56-2.98-2.19-4.47-5.68-4.47-10.46,0-5.17,1.94-9.16,5.82-11.98,3.88-2.81,8.83-4.22,14.84-4.22s11.06,1.45,14.97,4.34c3.91,2.9,6,7.16,6.28,12.78h-7c-.28-3.6-1.72-6.27-4.3-8.01Z"/>
          <path class="cls-2" d="M345.26,82.62h6.92v49.17h28.26v6.5h-35.17v-55.67Z"/>
          <path class="cls-2" d="M406.67,82.62h14.42l20.33,55.67h-7.59l-7-18.73h-25.98l-6.92,18.73h-7.59l20.33-55.67ZM424.8,113.07l-10.12-27.58h-1.6l-10.21,27.58h21.93Z"/>
          <path class="cls-2" d="M449.01,82.62h21.85c3.54,0,6.72.75,9.53,2.24,2.81,1.49,5.02,3.56,6.62,6.2,1.6,2.64,2.4,5.68,2.4,9.11,0,3.71-.96,6.64-2.87,8.77-1.91,2.14-4.47,3.57-7.68,4.3v.59c2.98,0,5.28.45,6.92,1.35,1.63.9,2.5,2.61,2.61,5.15l.51,17.97h-6.83l-.51-17.97c0-1.18-.28-2.02-.84-2.53-.56-.51-1.66-.76-3.29-.76h-21.51v21.26h-6.92v-55.67ZM479.42,107.71c2.05-1.88,3.08-4.23,3.08-7.04,0-1.91-.48-3.75-1.43-5.52-.96-1.77-2.26-3.22-3.92-4.34-1.66-1.12-3.42-1.69-5.27-1.69h-15.94v21.42h15.94c2.98,0,5.5-.94,7.55-2.83Z"/>
          <path class="cls-2" d="M497,89.11v-6.5h38.88v8.77l-31.88,40.4h32.14v6.5h-38.89v-8.77l31.8-40.4h-32.05Z"/>
          <path class="cls-2" d="M543.73,82.62h35.93v6.5h-29.02v17.54h27.24v6.5h-27.24v18.64h29.35v6.5h-36.27v-55.67Z"/>
          <path class="cls-2" d="M619.73,90.88c-2.59-1.74-5.9-2.61-9.95-2.61s-7.35.82-9.91,2.45c-2.56,1.63-3.84,4.02-3.84,7.17,0,2.53.9,4.47,2.7,5.82,1.8,1.35,4.95,2.42,9.45,3.21l6.58,1.18c5.17.96,9.31,2.61,12.4,4.98,3.09,2.36,4.64,5.85,4.64,10.46,0,5.17-1.94,9.07-5.82,11.68s-9,3.92-15.35,3.92c-4.16,0-7.94-.7-11.35-2.11-3.4-1.4-6.16-3.54-8.27-6.41-2.11-2.87-3.25-6.41-3.42-10.63h6.92c.56,8.44,5.93,12.65,16.11,12.65,4.39,0,7.86-.74,10.42-2.24,2.56-1.49,3.84-3.78,3.84-6.87,0-2.59-1.22-4.61-3.67-6.07-2.45-1.46-5.5-2.53-9.15-3.21l-6.75-1.26c-4.84-.84-8.74-2.36-11.72-4.56-2.98-2.19-4.47-5.68-4.47-10.46,0-5.17,1.94-9.16,5.82-11.98,3.88-2.81,8.83-4.22,14.84-4.22s11.06,1.45,14.97,4.34c3.91,2.9,6,7.16,6.28,12.78h-7c-.28-3.6-1.72-6.27-4.3-8.01Z"/>
        </g>
        <path class="cls-1" d="M22.19,0L0,148.36h155.1L177.29,0H22.19ZM105.73,89.84l6.45,4.34,6.49,4.55,4.35-2.47,7.24-3.25,7.01-3.76,4.81-3.28,4.95-1.94-.42,5.89-1.42,6.22-.47,6.31-5.47,2.07-4.91,3.07-.14-.3-6.93,3.93-7.33,3.45-1.59,8.72-.99,8.41-5.93.55-6.01-.82-6.35.55.9-7.8,1.18-7.71,1.21-7.64-1.6-1.63-.07.07-7.01-3.84-4.59-2.28-3.97-3.45-5.33,2.73-4.87,3.19-8.01,4.16-2.19,1.08-1.17,7.59-1.14,7.71-1.64,7.68-6.01-.48-6.27.94-6.22-.35,1.29-8.68,1.83-8.78-6.17-3.72-6.29-3.21-4.57-2.29-3.89-3.09.42-6.15,1.75-6.22.36-6.41,4.32,2.97,4.5,2.38,6.09,3.48,5.94,3.69,3.44,2.35,7.91-4.08,7.89-4.01,2.13-1.37-1.57-1.58-7.06-3.53-6.39-4.42-3.76-1.76-5.74-3.94-6.24-3.28-4.24-2.73-4.09-2.93-3.99-2.16,4.7-3.05,5.64-3.72,5.6-3.63,5.49,3.46,5.81,3.15,3.69,1.86,6.19,4.69,7.17,3.38,2.2,1.18,6.63,4.98,1.27-6.73,1.01-6.22.5-6.26-6.81-4.16-1.97-1.48-5.27-2.4-5.07-2.69-4.06-3.43,4.72-3.88,5.85-2.85,5.14-4.12.94,1.43,5.13,1.81,3.78,2.73,1.09-6.53,1.72-6.77,4.83-3.58,5.18-2.91,4.54,2.66,4.51,3.44-1.15,7.16-1.67,7.14,5.5-2.84,5.05-3.18h1.38s4.42,3.39,4.42,3.39l4.14,3.78,4.65,3.12-5.56,3.17-5.68,3.09-5.73,3-2.5,1.28-8.14,3.73-1.36,6.14-.19,6.22-1.47,6.47,8.28-4.08,2.27-1.81,7.92-3.96,8.16-3.44,4.17-2.03,6.64-3.38,6.51-4.36,4.79,3.84,4.29,3.98,3.95,3.21-4.88,2.31-5.2,2.43-4.86,3.15-7,3.77-7.09,3.6-4.34,1.65-7.69,4.5-8.23,3.25-2.01,1.68,2.08.91Z"/>
      </g>
      <polygon class="cls-2" points="603.32 37.8 603.32 43.23 582.71 43.23 582.71 63.82 577.28 63.82 577.28 43.23 556.69 43.23 556.69 37.8 577.28 37.8 577.28 17.19 582.71 17.19 582.71 37.8 603.32 37.8"/>
    </g>
  </g>
</svg>