<?xml version="1.0" encoding="UTF-8"?>
<svg id="Calque_2" data-name="Calque 2" xmlns="http://www.w3.org/2000/svg" viewBox="0 0 158.27 156.54">
    <defs>
          <style>
                  .cls-1 {
                    fill: #080709;
                  }
                  .cls-2 {
                    fill: #c17d1a;
                  }
                  .cls-3 {
                    fill: #30aa3b;
                  }
                  @media (prefers-color-scheme: dark) {
                    .cls-1 {
                      fill: #fff;
                    }
                  }
          </style>
    </defs>
    <g id="Calque_1-2" data-name="Calque 1">
          <g>
                  <g>
                            <polygon class="cls-1" points="0 95.62 17.64 99.3 17.64 120.97 0 117.28 0 95.62"/>
                            <polygon class="cls-1" points="158.27 78.83 158.27 100.51 27.2 121.21 27.2 99.54 158.27 78.83"/>
                  </g>
                  <g>
                            <polygon class="cls-3" points="26.29 48.2 43.93 51.88 43.93 73.56 26.29 69.87 26.29 48.2"/>
                            <polygon class="cls-3" points="132.52 40.12 132.52 61.78 53.49 73.82 53.49 52.14 132.52 40.12"/>
                  </g>
                  <g>
                            <polygon class="cls-2" points="49.69 1.08 67.4 4.77 67.4 26.44 49.69 22.74 49.69 1.08"/>
                            <polygon class="cls-2" points="109.85 0 109.85 21.67 76.97 26.68 76.97 5.01 109.85 0"/>
                  </g>
                  <g>
                            <polygon class="cls-1" points="49.06 130.91 66.69 134.6 66.69 156.27 49.06 152.59 49.06 130.91"/>
                            <polygon class="cls-1" points="109.21 129.85 109.21 151.52 76.26 156.54 76.26 134.86 109.21 129.85"/>
                  </g>
          </g>
    </g>
</svg>
