<?xml version="1.0" encoding="UTF-8"?>
<svg id="Calque_2" data-name="Calque 2" xmlns="http://www.w3.org/2000/svg" viewBox="0 0 585.76 127.19">
  <defs>
    <style>
      .cls-1 {
        fill: #30aa3b;
      }

      .cls-2 {
        fill: #91651d;
      }

      .cls-3 {
        fill: #080709;
      }
    </style>
  </defs>
  <g id="Calque_1-2" data-name="Calque 1">
    <g>
      <g>
        <g>
          <g>
            <path class="cls-3" d="M230.97,49.93c-1.91,3.05-4.58,5.46-8.02,7.24s-7.53,2.67-12.28,2.67c-5.06,0-9.54-1.1-13.44-3.29-3.9-2.19-6.92-5.28-9.06-9.26-2.14-3.97-3.22-8.55-3.22-13.71s1.07-9.82,3.22-13.83c2.14-4,5.16-7.1,9.06-9.3,3.9-2.19,8.38-3.29,13.44-3.29,4.75,0,8.86.88,12.32,2.63,3.46,1.76,6.13,4.12,8.02,7.09,1.89,2.97,2.98,6.31,3.29,10.03h-8.29c-.46-3.56-2.09-6.4-4.88-8.52-2.79-2.12-6.28-3.18-10.46-3.18-3.31,0-6.29.76-8.95,2.29-2.66,1.52-4.74,3.67-6.24,6.43-1.5,2.76-2.25,5.98-2.25,9.64s.75,6.81,2.25,9.57c1.5,2.76,3.58,4.91,6.24,6.43,2.66,1.52,5.64,2.28,8.95,2.28,4.44,0,7.99-1.14,10.65-3.41,2.66-2.27,4.22-5.19,4.69-8.75h8.37c-.36,3.77-1.5,7.18-3.41,10.23Z"/>
            <path class="cls-3" d="M256.61,7.94h16.65l17.58,51.13h-9.14l-5.97-16.42h-21.77l-5.81,16.42h-9.14l17.59-51.13ZM273.5,34.67l-7.9-23.16h-1.32l-7.9,23.16h17.12Z"/>
            <path class="cls-3" d="M297.04,7.94h20.38c3.3,0,6.27.66,8.91,1.97,2.63,1.32,4.7,3.19,6.2,5.62,1.5,2.43,2.25,5.22,2.25,8.37,0,3.62-.97,6.39-2.9,8.33-1.94,1.94-4.41,3.17-7.4,3.68v.7c2.84,0,5.11.52,6.82,1.55,1.7,1.03,2.58,2.87,2.63,5.5l.54,15.42h-8.44l-.39-16.58c-.05-.77-.26-1.32-.62-1.63-.36-.31-1.01-.46-1.94-.46h-17.66v18.67h-8.37V7.94ZM324.12,30.33c1.52-1.39,2.28-3.18,2.28-5.35,0-2.43-.8-4.54-2.4-6.35-1.6-1.81-3.54-2.71-5.81-2.71h-12.78v16.5h12.78c2.43,0,4.4-.7,5.93-2.09Z"/>
            <path class="cls-3" d="M340.97,7.94h20.38c3.3,0,6.27.66,8.91,1.97,2.63,1.32,4.7,3.19,6.2,5.62,1.5,2.43,2.25,5.22,2.25,8.37,0,3.62-.97,6.39-2.9,8.33-1.94,1.94-4.41,3.17-7.4,3.68v.7c2.84,0,5.11.52,6.82,1.55,1.7,1.03,2.58,2.87,2.63,5.5l.54,15.42h-8.44l-.39-16.58c-.05-.77-.26-1.32-.62-1.63-.36-.31-1.01-.46-1.94-.46h-17.66v18.67h-8.37V7.94ZM368.04,30.33c1.52-1.39,2.28-3.18,2.28-5.35,0-2.43-.8-4.54-2.4-6.35-1.6-1.81-3.54-2.71-5.81-2.71h-12.78v16.5h12.78c2.43,0,4.4-.7,5.93-2.09Z"/>
            <path class="cls-3" d="M424.79,10.5c3.92,2.22,6.96,5.33,9.1,9.33,2.14,4,3.22,8.56,3.22,13.67s-1.07,9.67-3.22,13.67c-2.14,4-5.18,7.11-9.1,9.33-3.93,2.22-8.52,3.33-13.79,3.33s-9.86-1.11-13.79-3.33c-3.92-2.22-6.96-5.33-9.1-9.33-2.14-4-3.22-8.56-3.22-13.67s1.07-9.67,3.22-13.67c2.14-4,5.18-7.11,9.1-9.33,3.93-2.22,8.52-3.33,13.79-3.33s9.86,1.11,13.79,3.33ZM398.02,20.06c-3.18,3.23-4.77,7.71-4.77,13.44s1.59,10.21,4.77,13.44c3.17,3.23,7.5,4.84,12.98,4.84,3.46,0,6.53-.74,9.22-2.21,2.69-1.47,4.78-3.58,6.28-6.31,1.5-2.74,2.25-5.99,2.25-9.76s-.75-7.02-2.25-9.76c-1.5-2.74-3.59-4.84-6.28-6.31-2.68-1.47-5.76-2.21-9.22-2.21-5.48,0-9.8,1.61-12.98,4.84Z"/>
            <path class="cls-3" d="M443.3,7.94h15.73l20.22,48.26h.85V7.94h8.37v51.13h-16.73l-19.06-47.41h-1.01v47.41h-8.37V7.94Z"/>
          </g>
          <g>
            <path class="cls-3" d="M184.95,70.64h17.43c8,0,14.19,2.09,18.55,6.27,4.36,4.18,6.55,10.61,6.55,19.29s-2.18,15.11-6.55,19.29c-4.36,4.18-10.55,6.27-18.55,6.27h-17.43v-51.13ZM215.13,109.53c2.66-2.84,3.99-7.28,3.99-13.32s-1.33-10.48-3.99-13.32c-2.66-2.84-6.37-4.26-11.11-4.26h-10.69v35.17h10.69c4.75,0,8.45-1.42,11.11-4.26Z"/>
            <path class="cls-3" d="M233.68,70.64h33.78v7.98h-25.41v13.09h23.86v7.98h-23.86v14.1h25.72v7.98h-34.09v-51.13Z"/>
            <path class="cls-3" d="M294.64,77.92c-3.36,0-6.02.59-7.98,1.78-1.96,1.19-2.94,3-2.94,5.42,0,1.29.28,2.35.85,3.18.57.83,1.54,1.52,2.9,2.09,1.37.57,3.34,1.08,5.93,1.55l5.81,1.08c4.8.88,8.64,2.43,11.5,4.65,2.87,2.22,4.3,5.55,4.3,9.99,0,4.91-1.81,8.6-5.42,11.08-3.62,2.48-8.37,3.72-14.25,3.72-3.87,0-7.4-.66-10.58-1.98-3.17-1.32-5.75-3.36-7.71-6.12-1.96-2.76-3-6.16-3.1-10.19h8.37c.21,3.82,1.45,6.5,3.72,8.02,2.27,1.52,5.37,2.29,9.3,2.29,7.54,0,11.31-2.27,11.31-6.82,0-3.51-3.44-5.86-10.31-7.05l-5.89-1.01c-4.49-.82-8.13-2.28-10.92-4.38-2.79-2.09-4.18-5.43-4.18-10.03,0-3.25.85-6.03,2.56-8.33,1.7-2.3,4.01-4.04,6.93-5.23,2.92-1.19,6.19-1.78,9.8-1.78,5.63,0,10.29,1.41,13.98,4.22,3.69,2.81,5.62,6.93,5.77,12.36h-8.6c-.57-5.68-4.29-8.52-11.16-8.52Z"/>
            <path class="cls-3" d="M321.21,70.64h8.37v43.15h24.86v7.98h-33.23v-51.13Z"/>
            <path class="cls-3" d="M376.68,70.64h16.65l17.58,51.13h-9.14l-5.97-16.42h-21.77l-5.81,16.42h-9.14l17.59-51.13ZM393.57,97.37l-7.9-23.16h-1.32l-7.9,23.16h17.12Z"/>
            <path class="cls-3" d="M417.12,70.64h20.38c3.3,0,6.27.66,8.91,1.97,2.63,1.32,4.7,3.19,6.2,5.62,1.5,2.43,2.25,5.22,2.25,8.37,0,3.62-.97,6.39-2.9,8.33-1.94,1.94-4.41,3.17-7.4,3.68v.7c2.84,0,5.11.52,6.82,1.55,1.7,1.03,2.58,2.87,2.63,5.5l.54,15.42h-8.44l-.39-16.58c-.05-.77-.26-1.32-.62-1.63-.36-.31-1.01-.46-1.94-.46h-17.66v18.67h-8.37v-51.13ZM444.19,93.03c1.52-1.39,2.28-3.18,2.28-5.35,0-2.43-.8-4.54-2.4-6.35-1.6-1.81-3.54-2.71-5.81-2.71h-12.78v16.5h12.78c2.43,0,4.4-.7,5.93-2.09Z"/>
            <path class="cls-3" d="M461.04,78.62v-7.98h36.95v9.3l-27.19,33.85h27.42v7.98h-36.95v-9.3l27.11-33.85h-27.35Z"/>
            <path class="cls-3" d="M504.42,70.64h33.78v7.98h-25.41v13.09h23.86v7.98h-23.86v14.1h25.72v7.98h-34.09v-51.13Z"/>
            <path class="cls-3" d="M565.38,77.92c-3.36,0-6.02.59-7.98,1.78-1.96,1.19-2.94,3-2.94,5.42,0,1.29.28,2.35.85,3.18.57.83,1.54,1.52,2.9,2.09,1.37.57,3.34,1.08,5.93,1.55l5.81,1.08c4.8.88,8.64,2.43,11.5,4.65,2.87,2.22,4.3,5.55,4.3,9.99,0,4.91-1.81,8.6-5.42,11.08-3.62,2.48-8.37,3.72-14.25,3.72-3.87,0-7.4-.66-10.58-1.98-3.17-1.32-5.75-3.36-7.71-6.12-1.96-2.76-3-6.16-3.1-10.19h8.37c.21,3.82,1.45,6.5,3.72,8.02,2.27,1.52,5.37,2.29,9.3,2.29,7.54,0,11.31-2.27,11.31-6.82,0-3.51-3.44-5.86-10.31-7.05l-5.89-1.01c-4.49-.82-8.13-2.28-10.92-4.38-2.79-2.09-4.18-5.43-4.18-10.03,0-3.25.85-6.03,2.56-8.33,1.7-2.3,4.01-4.04,6.93-5.23,2.92-1.19,6.19-1.78,9.8-1.78,5.63,0,10.29,1.41,13.98,4.22,3.69,2.81,5.62,6.93,5.77,12.36h-8.6c-.57-5.68-4.29-8.52-11.16-8.52Z"/>
          </g>
        </g>
        <rect class="cls-3" x="519.42" y="14.29" width="5.32" height="38.58"/>
        <rect class="cls-3" x="502.79" y="30.92" width="38.58" height="5.32"/>
      </g>
      <g>
        <rect class="cls-2" x="55.99" width="41.99" height="18"/>
        <rect x="55.99" y="109.19" width="41.99" height="18"/>
        <rect class="cls-1" x="29.92" y="36.4" width="94.14" height="18"/>
        <rect y="72.79" width="153.98" height="18"/>
      </g>
    </g>
  </g>
</svg>