<?xml version="1.0" encoding="UTF-8"?>
<svg id="Calque_2" data-name="Calque 2" xmlns="http://www.w3.org/2000/svg" viewBox="0 0 287.74 243.27">
  <defs>
    <style>
      .cls-1 {
        fill: #1d1d1b;
      }
    </style>
  </defs>
  <g id="Calque_1-2" data-name="Calque 1">
    <path class="cls-1" d="M284.5,10.1c-3.44-5.54-9.12-9.17-15.59-9.97-.69-.08-1.39-.13-2.08-.13-.02,0-9.19.04-9.19.04-.38-.02-.77-.03-1.15-.03-9.55,0-17.8,6.14-20.54,15.29-.05.16-.09.32-.14.47l-7.7,28.72c-3.28-5.44-7.52-10.42-12.64-14.82,4.16-3.9,6.14-9.7,5.11-15.43-1.18-6.59-6.13-11.88-12.62-13.5-1.98-.49-4.04-.74-6.13-.74-8.2,0-16.95,3.79-26.6,11.55-6.82-1.22-14.13-1.92-21.82-2.11-1.41-.03-2.81-.05-4.2-.05-27.24,0-48.32,6.97-60.98,20.15-9.17,9.55-13.71,22.09-13.13,36.25.83,20.18,16.25,35.68,36.5,37.37-15.61,25.32-32.6,47.58-38.04,53.94-3.19,3.77-5.91,6.33-8.04,8.01-2.6-10.67-12.83-18.41-25.4-18.41-4.05,0-8.04.79-11.85,2.34C10.57,156.26,0,174.01,0,196.52c0,27.52,20.92,46.75,50.88,46.75,23.11,0,45.58-16.61,68.68-50.76,7.28-10.77,14-22.36,19.95-33.47.3,1.79.68,3.59,1.14,5.41,5.37,21.03,20.07,33.59,39.34,33.59,11,0,26.88-3.97,40.19-22.86.11-.14.21-.29.31-.44,6.86-9.87,10.83-20.79,13.01-28.55,10.33-2.16,19.09-9.99,22.34-20.56,2.05-6.8,1.48-13.87-1.51-19.81,2.53-2.28,4.53-5.19,5.76-8.53l26.26-68.3c.07-.17.13-.34.19-.51,2.14-6.15,1.4-12.85-2.04-18.38ZM151.55,103.17c0-6.13,5.12-11.17,11.54-11.12,7.08.06,10.46,3.92,10.46,10.21-1.12.36-1.8.54-3.78.78-1.85.24-2.49.18-3.59.21,0-2.83-1.46-4.09-3.77-4.09-1.9,0-3.7,2.17-2.63,4.23,1.6,3.1,8.66,2.23,9.93,2.08,2.85-.35,5.39-1.04,7.43-2.04.07-.03.13-.07.2-.1.16-.07.31-.15.46-.23.07-.03.16-.07.24-.11,11.39-5.36,18.07-20.73,18.07-32.95,0-10.09-3.83-18.34-10.18-24.4-1.85-1.77-4.14-3.33-6.5-4.26-10.81,15.01-29.42,57.56-34.16,67.56-15.3,32.27-53.53,117.32-94.39,117.32-20.14,0-33.86-11.5-33.86-29.75,0-16.14,6.93-27.34,17.68-31.72,7.03-2.87,14.46.26,14.46,5.68,0,7.69,3.33,14.53,11.87,14.53,7.34,0,16.28-6.01,25.51-16.9,6.88-8.05,24.58-31.67,39.96-56.69,13.03-21.2,28.48-51.7,45.08-73.02-5.94-2.4-17.26-2.75-30.33-.86-12.13,1.74-29.32,8.19-29.24,21.53.03,5.11,3.92,9.9,11.53,10,11.2.15,16.98-4.87,21.17-14.14,1.21-2.67,2.62-1.04,2.62.13,0,11.63-9.93,31.26-32.03,31.26-11.13,0-22.63-7.25-23.2-21.22-1.14-27.94,25.29-39.54,60.89-38.65,9.71.24,18.96,1.42,27.01,3.55,8.1-7.73,17.5-14.33,23.85-12.74-10.08,6.89-13.63,11.01-16.75,15.1,2.17.86,4.26,1.81,6.24,2.84,15.99,8.27,25.74,21.71,25.74,38.15,0,19.98-15.81,33.46-33.93,38.08-2.24.47-4.34.86-6.29,1.18-.18.02-.36.05-.54.08-5.31.7-9.67.81-13.05.65h-.03c-10.15-.65-13.69-3.98-13.69-10.16ZM217.35,140.79c-2.24,8.24-5.83,17.09-10.91,24.38,0,0,0,.01-.01.01-6.39,9.14-15.11,15.85-26.43,15.85-13.28,0-20.12-10.01-22.86-20.79-3.68-14.41-.73-27.97,6.33-44.8,1.73.21,3.5.32,5.35.32,3.15,0,3.69,0,5.97-.33-.23,12.09-2.13,28.87,9.31,34.83,10.86,5.67,23.65-3.83,30.32-11.08.05-.06.13-.13.21-.19h0s.01-.01.01-.01c1.24-.99,3.15.16,2.7,1.81ZM239.56,120.72c-1.74,5.65-7.38,9.7-13.16,8.99-5.78-.7-8.55-5.72-6.81-11.45,1.77-5.81,7.48-9.77,13.1-9.09,5.63.69,8.62,5.73,6.87,11.55ZM270.48,22.88l-26.33,68.47c-.68,1.99-2.65,3.22-4.74,2.96l-1.75-.22c-2.74-.33-4.51-3.06-3.72-5.69l18.31-68.22c.62-2.07,2.64-3.4,4.79-3.13l9.79-.04c2.81.35,4.59,3.2,3.65,5.87Z"/>
  </g>
</svg>