<?xml version="1.0" encoding="UTF-8"?>
<svg id="Calque_2" data-name="Calque 2" xmlns="http://www.w3.org/2000/svg" viewBox="0 0 391.49 69.37">
  <g id="Calque_1-2" data-name="Calque 1">
    <g>
      <g>
        <path d="M181.35,25.46c-1.13,1.78-2.72,3.19-4.76,4.23-2.04,1.04-4.45,1.56-7.24,1.56-3,0-5.65-.65-7.95-1.95-2.3-1.3-4.08-3.13-5.36-5.49-1.27-2.36-1.91-5.07-1.91-8.14s.64-5.83,1.91-8.2c1.27-2.37,3.06-4.21,5.36-5.52,2.3-1.3,4.95-1.95,7.95-1.95,2.82,0,5.25.51,7.31,1.52,2.05,1.01,3.64,2.38,4.76,4.11,1.12,1.73,1.74,3.65,1.86,5.77h-3.68c-.12-1.47-.64-2.8-1.54-4-.9-1.19-2.11-2.14-3.61-2.83-1.5-.69-3.2-1.03-5.1-1.03-2.15,0-4.09.51-5.84,1.54-1.75,1.03-3.13,2.46-4.14,4.3-1.01,1.84-1.52,3.94-1.52,6.3s.51,4.41,1.52,6.25c1.01,1.84,2.39,3.26,4.14,4.27s3.69,1.52,5.84,1.52c1.96,0,3.69-.37,5.19-1.1,1.5-.74,2.68-1.73,3.54-2.99.86-1.26,1.36-2.65,1.52-4.18h3.72c-.18,2.24-.84,4.24-1.98,6.02Z"/>
        <path d="M197.62.46h7.86l11.08,30.34h-4.14l-3.82-10.2h-14.16l-3.77,10.2h-4.14L197.62.46ZM207.5,17.05l-5.52-15.03h-.87l-5.56,15.03h11.95Z"/>
        <path d="M220.69.46h11.9c1.93,0,3.66.41,5.19,1.22,1.53.81,2.73,1.94,3.61,3.38.87,1.44,1.31,3.1,1.31,4.96,0,2.02-.52,3.62-1.56,4.78-1.04,1.16-2.44,1.95-4.18,2.34v.32c1.62,0,2.88.25,3.77.74.89.49,1.36,1.42,1.42,2.8l.28,9.79h-3.72l-.28-9.79c0-.64-.15-1.1-.46-1.38-.31-.28-.9-.41-1.79-.41h-11.72v11.58h-3.77V.46ZM237.26,14.13c1.12-1.03,1.68-2.31,1.68-3.84,0-1.04-.26-2.05-.78-3.01-.52-.97-1.23-1.75-2.14-2.37-.9-.61-1.86-.92-2.87-.92h-8.69v11.67h8.69c1.62,0,2.99-.51,4.11-1.54Z"/>
        <path d="M246.85.46h11.9c1.93,0,3.66.41,5.19,1.22,1.53.81,2.73,1.94,3.61,3.38.87,1.44,1.31,3.1,1.31,4.96,0,2.02-.52,3.62-1.56,4.78-1.04,1.16-2.44,1.95-4.18,2.34v.32c1.62,0,2.88.25,3.77.74.89.49,1.36,1.42,1.42,2.8l.28,9.79h-3.72l-.28-9.79c0-.64-.15-1.1-.46-1.38-.31-.28-.9-.41-1.79-.41h-11.72v11.58h-3.77V.46ZM263.41,14.13c1.12-1.03,1.68-2.31,1.68-3.84,0-1.04-.26-2.05-.78-3.01-.52-.97-1.23-1.75-2.14-2.37-.9-.61-1.86-.92-2.87-.92h-8.69v11.67h8.69c1.62,0,2.99-.51,4.11-1.54Z"/>
        <path d="M296.69,1.98c2.34,1.32,4.14,3.16,5.4,5.52,1.26,2.36,1.88,5.07,1.88,8.14s-.63,5.78-1.88,8.14c-1.26,2.36-3.06,4.2-5.4,5.52-2.34,1.32-5.08,1.98-8.2,1.98s-5.86-.66-8.2-1.98c-2.34-1.32-4.14-3.16-5.4-5.52-1.26-2.36-1.88-5.07-1.88-8.14s.63-5.78,1.88-8.14c1.26-2.36,3.06-4.2,5.4-5.52,2.34-1.32,5.08-1.98,8.2-1.98s5.86.66,8.2,1.98ZM282.3,4.99c-1.76.97-3.13,2.35-4.09,4.16-.97,1.81-1.45,3.97-1.45,6.48s.48,4.67,1.45,6.48c.97,1.81,2.33,3.19,4.09,4.16,1.76.97,3.82,1.45,6.18,1.45,2.24,0,4.24-.48,6.02-1.45,1.78-.97,3.17-2.36,4.18-4.18,1.01-1.82,1.52-3.98,1.52-6.46s-.51-4.63-1.52-6.46c-1.01-1.82-2.41-3.22-4.18-4.18-1.78-.97-3.79-1.45-6.02-1.45-2.36,0-4.42.48-6.18,1.45Z"/>
        <path d="M308.11.46h7.08l14.29,29h.46V.46h3.77v30.34h-7.54l-13.79-28.54h-.51v28.54h-3.77V.46Z"/>
        <path d="M154.14,38.58h10.11c9.9,0,14.85,5.06,14.85,15.17s-4.95,15.17-14.85,15.17h-10.11v-30.34ZM172.71,62.48c1.78-1.93,2.67-4.84,2.67-8.73s-.89-6.8-2.67-8.73c-1.78-1.93-4.21-2.9-7.31-2.9h-7.54v23.26h7.54c3.09,0,5.53-.97,7.31-2.9Z"/>
        <path d="M183.23,38.58h19.58v3.54h-15.81v9.56h14.85v3.54h-14.85v10.16h16v3.54h-19.76v-30.34Z"/>
        <path d="M224.64,43.08c-1.41-.95-3.22-1.42-5.42-1.42s-4.01.44-5.4,1.33c-1.39.89-2.09,2.19-2.09,3.91,0,1.38.49,2.44,1.47,3.17.98.74,2.7,1.32,5.15,1.75l3.58.64c2.82.52,5.07,1.42,6.76,2.71,1.68,1.29,2.53,3.19,2.53,5.7,0,2.82-1.06,4.94-3.17,6.37-2.11,1.42-4.9,2.14-8.37,2.14-2.27,0-4.33-.38-6.18-1.15-1.85-.77-3.36-1.93-4.5-3.49s-1.77-3.49-1.86-5.79h3.77c.31,4.6,3.23,6.89,8.78,6.89,2.39,0,4.28-.41,5.68-1.22,1.39-.81,2.09-2.06,2.09-3.75,0-1.41-.67-2.51-2-3.31-1.33-.8-3-1.38-4.99-1.75l-3.68-.69c-2.64-.46-4.76-1.29-6.39-2.48-1.62-1.19-2.44-3.09-2.44-5.7,0-2.82,1.06-4.99,3.17-6.53,2.11-1.53,4.81-2.3,8.09-2.3s6.03.79,8.16,2.37c2.13,1.58,3.27,3.9,3.42,6.96h-3.81c-.15-1.96-.93-3.42-2.34-4.37Z"/>
        <path d="M235.35,38.58h3.77v26.8h15.4v3.54h-19.17v-30.34Z"/>
        <path d="M268.81,38.58h7.86l11.08,30.34h-4.14l-3.82-10.2h-14.16l-3.77,10.2h-4.14l11.08-30.34ZM278.7,55.17l-5.52-15.03h-.87l-5.56,15.03h11.95Z"/>
        <path d="M291.89,38.58h11.9c1.93,0,3.66.41,5.19,1.22,1.53.81,2.73,1.94,3.61,3.38.87,1.44,1.31,3.1,1.31,4.96,0,2.02-.52,3.62-1.56,4.78-1.04,1.16-2.44,1.95-4.18,2.34v.32c1.62,0,2.88.25,3.77.74.89.49,1.36,1.42,1.42,2.8l.28,9.79h-3.72l-.28-9.79c0-.64-.15-1.1-.46-1.38-.31-.28-.9-.41-1.79-.41h-11.72v11.58h-3.77v-30.34ZM308.46,52.25c1.12-1.03,1.68-2.31,1.68-3.84,0-1.04-.26-2.05-.78-3.01-.52-.97-1.23-1.75-2.14-2.37-.9-.61-1.86-.92-2.87-.92h-8.69v11.67h8.69c1.62,0,2.99-.51,4.11-1.54Z"/>
        <path d="M318.04,42.11v-3.54h21.19v4.78l-17.37,22.02h17.51v3.54h-21.19v-4.78l17.33-22.02h-17.47Z"/>
        <path d="M343.5,38.58h19.58v3.54h-15.81v9.56h14.85v3.54h-14.85v10.16h16v3.54h-19.76v-30.34Z"/>
        <path d="M384.91,43.08c-1.41-.95-3.22-1.42-5.42-1.42s-4.01.44-5.4,1.33c-1.39.89-2.09,2.19-2.09,3.91,0,1.38.49,2.44,1.47,3.17.98.74,2.7,1.32,5.15,1.75l3.58.64c2.82.52,5.07,1.42,6.76,2.71,1.68,1.29,2.53,3.19,2.53,5.7,0,2.82-1.06,4.94-3.17,6.37-2.11,1.42-4.9,2.14-8.37,2.14-2.27,0-4.33-.38-6.18-1.15-1.85-.77-3.36-1.93-4.5-3.49-1.15-1.56-1.77-3.49-1.86-5.79h3.77c.31,4.6,3.23,6.89,8.78,6.89,2.39,0,4.28-.41,5.68-1.22,1.39-.81,2.09-2.06,2.09-3.75,0-1.41-.67-2.51-2-3.31-1.33-.8-3-1.38-4.99-1.75l-3.68-.69c-2.64-.46-4.76-1.29-6.39-2.48s-2.44-3.09-2.44-5.7c0-2.82,1.06-4.99,3.17-6.53,2.11-1.53,4.81-2.3,8.09-2.3s6.03.79,8.16,2.37c2.13,1.58,3.27,3.9,3.42,6.96h-3.81c-.15-1.96-.93-3.42-2.34-4.37Z"/>
        <polygon points="378.43 13.87 378.43 17.4 365.03 17.4 365.03 30.8 361.5 30.8 361.5 17.4 348.1 17.4 348.1 13.87 361.5 13.87 361.5 .46 365.03 .46 365.03 13.87 378.43 13.87"/>
      </g>
      <g>
        <path d="M134.22,69.37h-69.01V0h69.01v69.37ZM69.13,65.45h61.17V3.92h-61.17v61.53Z"/>
        <path d="M36.53,69.37H0V0h36.53v69.37ZM3.92,65.45h28.68V3.92H3.92v61.53Z"/>
        <path d="M69.13,69.37h-36.53V0h36.53v69.37ZM36.53,65.45h28.68V3.92h-28.68v61.53Z"/>
        <rect x="34.56" y="32.72" width="32.6" height="3.92"/>
        <rect x="97.75" y="21.84" width="3.92" height="25.7"/>
      </g>
    </g>
  </g>
</svg>